<svg xmlns="http://www.w3.org/2000/svg" width="45.5" height="49.388" viewBox="0 0 45.5 49.388">
  <path id="Path_17371" data-name="Path 17371" d="M63.779,11.523a1.281,1.281,0,0,0-.124-.547,1.2,1.2,0,0,0-.836-.66L41.806.124a1.247,1.247,0,0,0-1.083,0L19.5,10.409a1.242,1.242,0,0,0-.7,1.073V37.345a1.229,1.229,0,0,0,.7,1.114L40.722,48.745c.01,0,.01,0,.021.01a.367.367,0,0,1,.093.041c.01,0,.021.01.041.01l.093.031c.01,0,.021.01.031.01.031.01.072.01.1.021h.031c.041,0,.093.01.134.01a.588.588,0,0,0,.134-.01h.031a.366.366,0,0,0,.1-.021c.01,0,.021-.01.031-.01l.093-.031c.01,0,.021-.01.041-.01a.367.367,0,0,0,.093-.041c.01,0,.01,0,.021-.01L63.1,38.428a1.248,1.248,0,0,0,.7-1.114V11.554C63.779,11.544,63.779,11.534,63.779,11.523ZM41.259,2.61l18.4,8.924-6.778,3.291L34.481,5.9Zm0,17.847-18.4-8.924,8.79-4.261,18.4,8.924ZM21.276,13.525l18.745,9.089V45.65L21.276,36.561ZM42.5,45.65V22.613l8.8-4.271v6.025a1.238,1.238,0,1,0,2.476,0V17.135L61.3,13.483V36.52Z" transform="translate(-18.55 0.259)" fill="#9fa2a7" stroke="#f7f7f7" stroke-width="0.5"/>
</svg>
