<svg xmlns="http://www.w3.org/2000/svg" width="50.2" height="46.033" viewBox="0 0 50.2 46.033">
  <g id="refund" transform="translate(-1.9 -4.9)">
    <path id="Path_17363" data-name="Path 17363" d="M43.667,23.094V12.845l5-5V25h1.667V5.833h-.007A.811.811,0,0,0,49.5,5H9.5a.83.83,0,0,0-.589.244L2.245,11.91A.832.832,0,0,0,2,12.5V44.167A.833.833,0,0,0,2.833,45h40a.833.833,0,0,0,.833-.833V34.2A9.57,9.57,0,0,1,35.75,49.167a.833.833,0,1,0,0,1.667h1.667a14.571,14.571,0,0,0,6.25-27.739ZM42.488,11.667H27.345l5-5H47.488Zm-17.744.244a.83.83,0,0,0-.244.589v5.833H21.167V12.845l6.178-6.178h2.643ZM9.845,6.667H24.988l-5,5H4.845ZM3.667,43.333v-30H19.5v5.833a.833.833,0,0,0,.833.833h5a.833.833,0,0,0,.833-.833V13.333H42v9.082a14.488,14.488,0,0,0-4.583-.749h-1.25V17.5a.833.833,0,0,0-1.318-.678L23.182,25.155a.833.833,0,0,0,0,1.356l11.667,8.333a.833.833,0,0,0,1.318-.677V30.009A9.542,9.542,0,0,1,42,32.325V43.333Zm40.04,4.2a11.245,11.245,0,0,0-7.957-19.2h-.417a.833.833,0,0,0-.833.833v3.381l-9.4-6.714,9.4-6.714V22.5a.833.833,0,0,0,.833.833h2.083a12.915,12.915,0,0,1,6.29,24.2Z" fill="#9fa2a7" stroke="#9fa2a7" stroke-width="0.2"/>
  </g>
</svg>
