<svg xmlns="http://www.w3.org/2000/svg" width="40.5" height="51.882" viewBox="0 0 40.5 51.882">
  <g id="security" transform="translate(0.195 0.26)">
    <path id="Path_17366" data-name="Path 17366" d="M39.546,10.4,20.24.113a.959.959,0,0,0-.914.005L.554,10.406a.961.961,0,0,0-.5.843V24.687A27.824,27.824,0,0,0,16.732,50.152l2.606,1.135a.96.96,0,0,0,.765,0l2.936-1.268a27.77,27.77,0,0,0,17.017-25.6V11.249a.962.962,0,0,0-.509-.849ZM38.133,24.42A25.851,25.851,0,0,1,22.286,48.252l-.006,0-2.557,1.1L17.5,48.39a25.9,25.9,0,0,1-15.524-23.7V11.818L19.794,2.053l18.339,9.772Zm0,0" transform="translate(0 0)" fill="#9fa2a7" stroke="#9fa2a7" stroke-width="0.5"/>
    <path id="Path_17367" data-name="Path 17367" d="M81.534,150.051a.961.961,0,0,0-1.462,1.248l5.077,5.946a.961.961,0,0,0,1.337.122l11.825-9.62a.961.961,0,1,0-1.213-1.491L86,155.282Zm0,0" transform="translate(-68.831 -125.987)" fill="#9fa2a7" stroke="#9fa2a7" stroke-width="0.5"/>
  </g>
</svg>
