<svg xmlns="http://www.w3.org/2000/svg" width="45.59" height="45.545" viewBox="0 0 45.59 45.545">
  <g id="help_1_" data-name="help (1)" transform="translate(0.295 0.25)">
    <path id="Path_17368" data-name="Path 17368" d="M45,30.454A14.579,14.579,0,0,0,34.348,16.437,17.182,17.182,0,1,0,2.383,25.916L.063,34.3l8.386-2.319a17.119,17.119,0,0,0,7.988,2.365,14.55,14.55,0,0,0,21.418,8.63l7.081,1.959-1.959-7.081A14.494,14.494,0,0,0,45,30.454ZM8.865,29.132,3.845,30.52,5.234,25.5l-.317-.5A14.541,14.541,0,1,1,9.36,29.448Zm32.29,12.024L37.43,40.124l-.5.324a11.914,11.914,0,0,1-17.769-6.2A17.215,17.215,0,0,0,34.251,19.163a11.914,11.914,0,0,1,6.2,17.769l-.324.5Zm0,0" fill="#9fa2a7" stroke="#f7f7f7" stroke-width="0.5"/>
    <path id="Path_17369" data-name="Path 17369" d="M180.5,271h2.637v2.637H180.5Zm0,0" transform="translate(-164.636 -247.182)" fill="#9fa2a7" stroke="#f7f7f7" stroke-width="0.5"/>
    <path id="Path_17370" data-name="Path 17370" d="M143.41,95.274a2.61,2.61,0,0,1-.858,1.946l-3.1,2.834v3.217h2.637v-2.056l2.24-2.05a5.273,5.273,0,1,0-8.832-3.892h2.637a2.637,2.637,0,0,1,5.273,0Zm0,0" transform="translate(-123.591 -82.09)" fill="#9fa2a7" stroke="#f7f7f7" stroke-width="0.5"/>
  </g>
</svg>
